# xmcd CD database file
#
# Track frame offsets:
#	187
#	21582
#	43455
#	67330
#	85462
#	107165
#	126860
#	143430
#	162542
#	182832
#	201442
#	221525
#	244980
#	265787
#
# Disc length: 3910 seconds
#
# Revision: 3
# Processed by: cddbd v1.5.1PL0 Copyright (c) Steve Scherf et al.
# Submitted via: CDex 1.51
#
DISCID=e30f440e
DTITLE=????? - Special Best REPLAY Disc 1
DYEAR=1998
DGENRE=New Age
TTITLE0=?????
TTITLE1=????
TTITLE2=Good-by Love
TTITLE3=????????????
TTITLE4=??????Love Song
TTITLE5=?????
TTITLE6=????????
TTITLE7=?????
TTITLE8=???
TTITLE9=???????
TTITLE10=???
TTITLE11=????
TTITLE12=for you?
TTITLE13=????
EXTD=YEAR: 1998
EXTT0=
EXTT1=
EXTT2=
EXTT3=
EXTT4=
EXTT5=
EXTT6=
EXTT7=
EXTT8=
EXTT9=
EXTT10=
EXTT11=
EXTT12=
EXTT13=
PLAYORDER=
